<svg width="190" height="100" viewBox="0 0 190 100" fill="none" xmlns="http://www.w3.org/2000/svg">
<path d="M25.9742 36.7496C28.7233 36.7496 31.1252 37.3718 33.1797 38.6161C35.2633 39.8604 36.8693 41.669 37.9979 44.042C39.1554 46.3859 39.7342 49.1929 39.7342 52.4629C39.7342 55.6461 39.141 58.4675 37.9545 60.9273C36.797 63.387 35.162 65.2969 33.0495 66.657C30.966 68.0171 28.5931 68.6971 25.9308 68.6971C23.1817 68.6971 20.7654 68.0749 18.6818 66.8306C16.6272 65.5863 15.0212 63.7921 13.8637 61.4481C12.7351 59.0752 12.1708 56.2538 12.1708 52.9838C12.1708 49.8006 12.7496 46.9792 13.9071 44.5194C15.0935 42.0597 16.7285 40.1498 18.8121 38.7897C20.9245 37.4296 23.3119 36.7496 25.9742 36.7496ZM25.8006 37.5309C23.9485 37.5309 22.3135 38.182 20.8956 39.4842C19.5066 40.7575 18.4214 42.5517 17.6401 44.8667C16.8877 47.1817 16.5115 49.8295 16.5115 52.8102C16.5115 55.8197 16.9311 58.4675 17.7703 60.7536C18.6384 63.0397 19.7959 64.8049 21.2428 66.0493C22.6897 67.2936 24.3103 67.9158 26.1044 67.9158C27.9564 67.9158 29.577 67.2791 30.966 66.0059C32.384 64.7037 33.4691 62.895 34.2215 60.58C35.0028 58.265 35.3935 55.6171 35.3935 52.6365C35.3935 49.627 34.9594 46.9792 34.0913 44.6931C33.2521 42.407 32.109 40.6417 30.6621 39.3974C29.2152 38.1531 27.5947 37.5309 25.8006 37.5309Z" fill="black"/>
<path d="M73.2616 38.2254C72.2199 38.2833 71.453 38.3991 70.9611 38.5727C70.4981 38.7463 70.1798 39.0791 70.0061 39.571C69.8325 40.063 69.7457 40.8588 69.7457 41.9584V63.4883C69.7457 64.5879 69.8325 65.3837 70.0061 65.8756C70.1798 66.3676 70.4981 66.7004 70.9611 66.874C71.453 67.0187 72.2199 67.091 73.2616 67.091H76.4304C78.2245 67.091 79.5846 66.8451 80.5106 66.3531C81.4656 65.8322 82.1601 65.0075 82.5941 63.8789C83.0282 62.7503 83.3465 61.1154 83.5491 58.9739H84.5475C84.4606 59.871 84.4172 61.0575 84.4172 62.5333C84.4172 64.1828 84.5185 66.0348 84.7211 68.0894C82.7533 68.0026 79.4399 67.9592 74.7809 67.9592C69.2248 67.9592 65.0288 68.0026 62.1929 68.0894V67.2213C63.2346 67.1634 63.987 67.0476 64.45 66.874C64.942 66.7004 65.2748 66.3676 65.4484 65.8756C65.622 65.3837 65.7088 64.5879 65.7088 63.4883V41.9584C65.7088 40.8588 65.622 40.063 65.4484 39.571C65.2748 39.0791 64.942 38.7463 64.45 38.5727C63.987 38.3991 63.2346 38.2833 62.1929 38.2254V37.3573C63.4083 37.4441 65.2603 37.4875 67.749 37.4875C70.064 37.4875 71.9016 37.4441 73.2616 37.3573V38.2254Z" fill="black"/>
<path d="M128.601 62.5333C128.601 64.1828 128.702 66.0348 128.905 68.0894C126.937 68.0026 123.623 67.9592 118.964 67.9592C113.408 67.9592 109.212 68.0026 106.376 68.0894V67.2213C107.418 67.1634 108.171 67.0476 108.634 66.874C109.125 66.7004 109.458 66.3676 109.632 65.8756C109.806 65.3837 109.892 64.5879 109.892 63.4883V41.9584C109.892 40.8588 109.806 40.063 109.632 39.571C109.458 39.0791 109.125 38.7463 108.634 38.5727C108.171 38.3991 107.418 38.2833 106.376 38.2254V37.3573C109.212 37.4441 113.408 37.4875 118.964 37.4875C123.218 37.4875 126.242 37.4441 128.036 37.3573C127.834 39.2672 127.733 40.9745 127.733 42.4793C127.733 43.6079 127.776 44.505 127.863 45.1705H126.864C126.662 43.2896 126.401 41.9005 126.083 41.0035C125.765 40.0775 125.229 39.4119 124.477 39.0068C123.725 38.5727 122.582 38.3556 121.048 38.3556H117.445C116.403 38.3556 115.637 38.4425 115.145 38.6161C114.682 38.7608 114.363 39.0791 114.19 39.571C114.016 40.063 113.929 40.8588 113.929 41.9584V52.2025H116.794C117.807 52.2025 118.588 51.971 119.138 51.5079C119.688 51.016 120.05 50.4517 120.223 49.8151C120.426 49.1495 120.585 48.3248 120.701 47.3409L120.831 46.4727H121.829C121.742 47.6881 121.699 49.0482 121.699 50.553V52.6365C121.699 54.1124 121.786 56.167 121.959 58.8003H120.961C120.932 58.5978 120.845 57.9032 120.701 56.7168C120.556 55.5014 120.151 54.5898 119.485 53.9821C118.849 53.3745 117.952 53.0706 116.794 53.0706H113.929V63.4883C113.929 64.5879 114.016 65.3837 114.19 65.8756C114.363 66.3676 114.682 66.7004 115.145 66.874C115.637 67.0187 116.403 67.091 117.445 67.091H120.614C122.408 67.091 123.768 66.8595 124.694 66.3965C125.649 65.9046 126.344 65.1377 126.778 64.096C127.212 63.0253 127.53 61.4626 127.733 59.408H128.731C128.644 60.1893 128.601 61.2311 128.601 62.5333Z" fill="black"/>
<path d="M174.281 64.4432C174.976 66.2374 175.974 67.1634 177.276 67.2213V68.0894C176.119 68.0026 174.57 67.9592 172.632 67.9592C170.143 67.9592 168.291 68.0026 167.076 68.0894V67.2213C168.175 67.1634 168.957 67.0332 169.42 66.8306C169.911 66.5991 170.157 66.194 170.157 65.6152C170.157 65.1233 169.984 64.4432 169.637 63.5751L166.989 56.4563H156.484L154.705 61.0575C154.126 62.6201 153.836 63.8066 153.836 64.6168C153.836 65.5139 154.14 66.165 154.748 66.5702C155.385 66.9753 156.34 67.1923 157.613 67.2213V68.0894C155.963 68.0026 154.299 67.9592 152.621 67.9592C151.319 67.9592 150.234 68.0026 149.366 68.0894V67.2213C150.812 66.874 151.955 65.6152 152.795 63.4449L162.995 37.1403H163.69L174.281 64.4432ZM166.641 55.5882L161.78 42.6095L156.832 55.5882H166.641Z" fill="black"/>
<path d="M119.681 28.8715L112.709 35.8436L123.167 30.6145L120.552 28L119.681 28.8715Z" fill="black"/>
</svg>
