<svg width="40" height="40" viewBox="0 0 40 40" fill="none" xmlns="http://www.w3.org/2000/svg">
<g id="YouTube - Negative - Alternate" clip-path="url(#clip0_1_20)">
<path id="Vector" d="M17.2725 23.9648L24.2424 20L17.2725 16.0352V23.9648Z" fill="#0E0807"/>
<path id="Vector_2" d="M20 0C8.9543 0 0 8.9543 0 20C0 31.0457 8.9543 40 20 40C31.0457 40 40 31.0457 40 20C40 8.9543 31.0457 0 20 0ZM32.7762 26.4602C32.6255 27.0276 32.3283 27.5454 31.9145 27.9619C31.5007 28.3784 30.9848 28.6789 30.4184 28.8332C28.3391 29.3938 20 29.3937 20 29.3937C20 29.3937 11.6609 29.3938 9.58164 28.8332C9.0152 28.6789 8.49925 28.3784 8.08546 27.9619C7.67166 27.5454 7.37453 27.0276 7.22383 26.4602C6.6668 24.3672 6.6668 20 6.6668 20C6.6668 20 6.6668 15.6328 7.22383 13.5398C7.37453 12.9724 7.67166 12.4545 8.08546 12.0381C8.49925 11.6216 9.0152 11.3212 9.58164 11.1668C11.6609 10.6062 20 10.6062 20 10.6062C20 10.6062 28.3391 10.6062 30.4184 11.1668C30.9848 11.3212 31.5007 11.6216 31.9145 12.0381C32.3283 12.4545 32.6255 12.9724 32.7762 13.5398C33.3332 15.6328 33.3332 20 33.3332 20C33.3332 20 33.3332 24.3672 32.7762 26.4602Z" fill="#0E0807"/>
</g>
<defs>
<clipPath id="clip0_1_20">
<rect width="40" height="40" fill="white"/>
</clipPath>
</defs>
</svg>
